<?xml version="1.0" encoding="iso-8859-1"?>
<!-- Uploaded to: SVG Repo, www.svgrepo.com, Generator: SVG Repo Mixer Tools -->
<svg fill="#000000" height="800px" width="800px" version="1.1" id="Layer_1" xmlns="http://www.w3.org/2000/svg" xmlns:xlink="http://www.w3.org/1999/xlink" 
	 viewBox="0 0 512 512" xml:space="preserve">
<g>
	<g>
		<g>
			<path d="M367.304,159.632v-26.067h22.261c12.294,0,22.261-9.967,22.261-22.261V22.261C411.826,9.967,401.86,0,389.565,0h-267.13
				c-12.294,0-22.261,9.967-22.261,22.261v89.043c0,12.294,9.967,22.261,22.261,22.261h22.261v26.067
				c-38.604,11.394-66.783,47.106-66.783,89.4v169.761c0,51.473,41.733,93.206,93.206,93.206h169.761
				c51.474,0,93.206-41.733,93.206-93.206V249.032C434.087,206.738,405.908,171.026,367.304,159.632z M144.696,44.522h222.609
				v44.522h-22.261H166.957h-22.261V44.522z M322.783,133.565v22.261H189.217v-22.261H322.783z M389.565,418.794
				c0,26.885-21.8,48.685-48.685,48.685H171.119c-26.885,0-48.685-21.8-48.685-48.685V249.032c0-26.885,21.8-48.685,48.685-48.685
				h169.761c26.885,0,48.685,21.8,48.685,48.685V418.794z"/>
			<path d="M300.514,333.626c-0.037-2.881-0.619-5.629-1.651-8.146c-0.005-0.011-0.009-0.022-0.013-0.034
				c-0.257-0.624-0.543-1.233-0.853-1.827c-0.029-0.056-0.056-0.112-0.086-0.168c-0.296-0.554-0.616-1.092-0.956-1.617
				c-0.06-0.094-0.118-0.188-0.18-0.281c-0.333-0.498-0.688-0.979-1.059-1.447c-0.082-0.104-0.162-0.21-0.246-0.313
				c-0.389-0.474-0.8-0.928-1.226-1.367c-0.076-0.079-0.149-0.16-0.227-0.238c-0.488-0.489-1-0.954-1.531-1.397
				c-0.022-0.018-0.042-0.038-0.064-0.056c-0.579-0.478-1.185-0.926-1.811-1.344c-0.001,0-0.001-0.001-0.001-0.001
				c-0.001-0.001-0.002-0.001-0.003-0.002c-0.621-0.415-1.266-0.798-1.929-1.15c-0.024-0.013-0.048-0.024-0.072-0.037
				c-0.623-0.328-1.263-0.627-1.919-0.895c-0.053-0.022-0.106-0.041-0.159-0.063c-0.616-0.246-1.244-0.468-1.885-0.659
				c-0.081-0.024-0.163-0.046-0.244-0.069c-0.607-0.174-1.222-0.325-1.849-0.447c-0.105-0.021-0.21-0.037-0.315-0.056
				c-0.6-0.108-1.207-0.196-1.823-0.255c-0.116-0.011-0.232-0.017-0.348-0.026c-0.595-0.048-1.195-0.079-1.802-0.079h-0.072
				c-0.027,0-0.053,0-0.08,0h-25.036l21.449-32.174c6.82-10.229,4.055-24.051-6.174-30.87c-10.229-6.82-24.051-4.055-30.87,6.174
				l-44.421,66.632c-0.032,0.047-0.064,0.095-0.095,0.143l-0.005,0.007c-0.001,0.001-0.002,0.003-0.003,0.004
				c-0.415,0.621-0.798,1.265-1.149,1.928c-0.013,0.024-0.024,0.047-0.036,0.071c-0.328,0.623-0.627,1.262-0.895,1.918
				c-0.022,0.054-0.042,0.108-0.064,0.162c-0.246,0.615-0.467,1.243-0.658,1.883c-0.024,0.081-0.046,0.163-0.069,0.244
				c-0.174,0.606-0.324,1.222-0.447,1.848c-0.021,0.106-0.038,0.212-0.057,0.317c-0.108,0.599-0.196,1.206-0.255,1.821
				c-0.011,0.117-0.017,0.234-0.027,0.351c-0.048,0.594-0.079,1.193-0.079,1.8c0,0.015,0.001,0.029,0.001,0.044
				c0,0.081,0.005,0.162,0.006,0.243c0.037,2.88,0.619,5.627,1.65,8.145c0.005,0.012,0.009,0.024,0.014,0.036
				c0.257,0.624,0.542,1.232,0.853,1.826c0.029,0.056,0.057,0.113,0.086,0.169c0.296,0.554,0.616,1.092,0.956,1.617
				c0.06,0.094,0.118,0.188,0.18,0.281c0.333,0.497,0.688,0.978,1.059,1.446c0.083,0.105,0.162,0.211,0.247,0.314
				c0.388,0.473,0.799,0.926,1.225,1.365c0.077,0.079,0.15,0.161,0.228,0.24c0.487,0.488,0.998,0.953,1.528,1.394
				c0.023,0.019,0.045,0.04,0.068,0.059c0.579,0.478,1.183,0.925,1.809,1.343c0.001,0.001,0.002,0.001,0.003,0.002
				c0.002,0.001,0.004,0.002,0.006,0.003c0.62,0.414,1.263,0.797,1.926,1.148c0.025,0.013,0.05,0.025,0.074,0.038
				c0.622,0.327,1.261,0.626,1.916,0.894c0.054,0.022,0.108,0.042,0.161,0.064c0.615,0.246,1.242,0.467,1.883,0.658
				c0.082,0.025,0.164,0.046,0.246,0.07c0.606,0.173,1.221,0.324,1.846,0.446c0.106,0.021,0.212,0.038,0.318,0.057
				c0.599,0.108,1.206,0.196,1.821,0.255c0.117,0.011,0.234,0.017,0.351,0.027c0.594,0.048,1.193,0.079,1.8,0.079h0.07
				c0.028,0,0.055,0,0.082,0h25.035l-21.449,32.174c-6.82,10.23-4.055,24.051,6.174,30.87c10.23,6.82,24.051,4.055,30.87-6.174
				l44.422-66.632c0.032-0.047,0.063-0.095,0.095-0.143l0.005-0.007c0.001-0.001,0.002-0.003,0.003-0.004
				c0.415-0.621,0.797-1.265,1.149-1.928c0.013-0.024,0.024-0.048,0.037-0.072c0.327-0.622,0.626-1.262,0.895-1.917
				c0.022-0.054,0.042-0.108,0.064-0.162c0.246-0.615,0.467-1.242,0.658-1.883c0.024-0.081,0.046-0.163,0.07-0.245
				c0.174-0.606,0.324-1.221,0.447-1.847c0.021-0.106,0.038-0.212,0.057-0.318c0.108-0.599,0.196-1.206,0.255-1.821
				c0.011-0.117,0.017-0.234,0.027-0.351c0.048-0.594,0.079-1.193,0.079-1.8c0-0.015-0.001-0.029-0.001-0.044
				C300.52,333.788,300.516,333.707,300.514,333.626z"/>
		</g>
	</g>
</g>
</svg>