<?xml version="1.0" encoding="utf-8"?>
<!-- Generator: Adobe Illustrator 25.4.1, SVG Export Plug-In . SVG Version: 6.00 Build 0)  -->
<svg 
	version="1.1" 
	id="Layer_1" 
	xmlns="http://www.w3.org/2000/svg" 
	xmlns:xlink="http://www.w3.org/1999/xlink" 
	x="0px" 
	y="0px"
	viewBox="215.93 204.67 2366.82 1408.19" 
	style="enable-background:new 0 0 2700 1700;" 
	xml:space="preserve"

>
<style type="text/css">
	.st0{opacity:0.42;fill:url(#SVGID_1_);}
	.st1{fill:url(#SVGID_00000016790763006467058520000007670639816104282769_);}
	.st2{fill:url(#SVGID_00000018943366610140615660000018392259297179167396_);}
	.st3{fill:url(#SVGID_00000107549253343782941510000006069855128067042204_);}
	.st4{fill:url(#SVGID_00000054257271325644712180000001425853721185832629_);}
	.st5{fill:#FFFFFF;}
	.st6{fill:#FEFFCF;}
	.st7{fill:url(#SVGID_00000040567448451803364490000007623789323150898832_);}
	.st8{fill:#B8B3F4;}
	.st9{fill:url(#SVGID_00000137107998757875482280000015829410970077596545_);}
	.st10{opacity:0.11;}
	.st11{fill:url(#SVGID_00000025423829638640272760000000911020847918676357_);}
	.st12{fill:url(#SVGID_00000154415237583415726130000004163824413723805845_);}
	.st13{fill:url(#SVGID_00000164479509192237612760000015858918798807164077_);}
	.st14{fill:url(#SVGID_00000134235048111904681290000002553483632652252301_);}
	.st15{fill:#D3BD9F;}
	.st16{fill:url(#SVGID_00000054956603330885330280000006465428593819959477_);}
	.st17{fill:#E2CFAF;}
	.st18{fill:url(#SVGID_00000066480018806880655320000009520346987937362328_);}
	.st19{fill:url(#SVGID_00000112627896819135804060000016485606596437215158_);}
	.st20{fill:url(#SVGID_00000100366078045567966590000006737738798762496447_);}
	.st21{fill:url(#SVGID_00000113325894121854644990000014508928819986120596_);}
	.st22{fill:url(#SVGID_00000137836714741521396940000009514798429360213400_);}
	.st23{fill:url(#SVGID_00000091734394494508113050000016165036268928683650_);}
	.st24{fill:url(#SVGID_00000019677065528744259720000003863334806736543894_);}
	.st25{fill:url(#SVGID_00000179618814781503832000000013317536662414476706_);}
	.st26{fill:url(#SVGID_00000046324306435429519050000000221259234213005749_);}
	.st27{fill:url(#SVGID_00000084527361207501065510000003752615354149478294_);}
	.st28{fill:url(#SVGID_00000067938284897063129950000001460281303982399376_);}
	.st29{fill:url(#SVGID_00000119819460963435938940000017557415239563077809_);}
	.st30{fill:url(#SVGID_00000132776189988826299880000007627146139436964012_);}
	.st31{fill:url(#SVGID_00000179640419369996099970000006696141795970412444_);}
	.st32{opacity:0.29;fill:url(#SVGID_00000029028774924642570840000007353564846378530226_);}
	.st33{opacity:0.29;fill:url(#SVGID_00000012454073500410443410000013262201573398439564_);}
	.st34{opacity:0.17;fill:url(#SVGID_00000163036446939661701360000016662240929799746212_);}
	.st35{opacity:0.17;fill:url(#SVGID_00000094606214367643564420000000998003169091699336_);}
	.st36{fill:url(#SVGID_00000012453163718692613010000006050631955728381580_);}
	.st37{fill:url(#SVGID_00000183931421637652706180000013718009306403786661_);}
</style>
<g>
	<radialGradient id="SVGID_1_" cx="935.4427" cy="633.2411" r="4063.4597" gradientUnits="userSpaceOnUse">
		<stop  offset="0" style="stop-color:#FEFFCF"/>
		<stop  offset="0.5181" style="stop-color:#A171FF"/>
		<stop  offset="1" style="stop-color:#4B28FC"/>
	</radialGradient>
	<path class="st0" d="M746.02,1506.6H2559.2c0,0,110.56-525.33-147.41-451.81c-257.97,73.52-287.45,616.22-372.22,309.86
		c-84.76-306.36,53.36-603.93-321.58-573.07s-226.01,620.5-416.56,480.46s-231.02,155.76-347.14,122.1
		C838.16,1360.48,746.02,1506.6,746.02,1506.6z"/>
	
		<radialGradient id="SVGID_00000074414980313192256130000015795108578715854523_" cx="2157.3833" cy="1937.8856" r="2256.7861" gradientTransform="matrix(-0.8233 0 0 1 1379.5065 0)" gradientUnits="userSpaceOnUse">
		<stop  offset="0" style="stop-color:#FEFFCF"/>
		<stop  offset="0.5181" style="stop-color:#A171FF"/>
		<stop  offset="1" style="stop-color:#4B28FC"/>
	</radialGradient>
	<path style="fill:url(#SVGID_00000074414980313192256130000015795108578715854523_);" d="M215.93,1506.9h846.34
		c0,0-99.46-127.53-190.86-80.09c-91.4,47.44-56.45-137.99-188.17-133.43s-86.02,202.54-180.1,144.36s-86.02,47.34-142.47,30.49
		S232.48,1454.66,215.93,1506.9z"/>
	
		<linearGradient id="SVGID_00000041269837013212675000000004772395305360188602_" gradientUnits="userSpaceOnUse" x1="998.9807" y1="952.9824" x2="1656.7997" y2="1586.2856">
		<stop  offset="0" style="stop-color:#FFE75C"/>
		<stop  offset="1" style="stop-color:#FF2A00"/>
	</linearGradient>
	<path style="fill:url(#SVGID_00000041269837013212675000000004772395305360188602_);" d="M1256.76,1506.62h612.37
		c0,0-119.15-194.65-292.62-212.34C1403.04,1276.58,1256.76,1506.62,1256.76,1506.62z"/>
	
		<linearGradient id="SVGID_00000005233026931950826380000016055398908075267216_" gradientUnits="userSpaceOnUse" x1="655.5037" y1="958.8389" x2="2130.1873" y2="2291.229">
		<stop  offset="0" style="stop-color:#FFE75C"/>
		<stop  offset="1" style="stop-color:#FF2A00"/>
	</linearGradient>
	<path style="fill:url(#SVGID_00000005233026931950826380000016055398908075267216_);" d="M911.5,1506.62h607.13
		c0,0-118.13-271.44-290.11-296.11C1056.53,1185.83,911.5,1506.62,911.5,1506.62z"/>
	<g>
		
			<radialGradient id="SVGID_00000008116159500216298780000007146517856054477977_" cx="894.7909" cy="802.6892" r="1318.3157" gradientUnits="userSpaceOnUse">
			<stop  offset="0" style="stop-color:#FEFFCF"/>
			<stop  offset="0.5181" style="stop-color:#A171FF"/>
			<stop  offset="1" style="stop-color:#4B28FC"/>
		</radialGradient>
		<path style="fill:url(#SVGID_00000008116159500216298780000007146517856054477977_);" d="M1158.48,1345.87
			c-26.09-95.36-23.08-112.31,23.08-140c46.16-27.69-63.54-129.23-21.77-170.77c41.77-41.54,81.77-46.04,61.77-134.56
			c-20-88.52,84.62-136.21,81.54,9.94c-3.08,146.16,32.31,49.05,63.08,71.45c30.77,22.4-116.93,156.25-47.69,167.02
			c69.23,10.77-46.16,93.85-44.62,186.16C1275.41,1427.41,1178.72,1419.81,1158.48,1345.87z"/>
		<g>
			<path class="st5" d="M1217.97,1507.92L1217.97,1507.92c-0.85,0-1.54-0.69-1.54-1.54v-124.62c0-33.9,4.46-108.52,16.45-164.43
				c3.41-15.91,7.01-29.54,10.18-41.56c8.61-32.62,14.84-56.19,11.65-97.49c-1.89-24.56,0.97-50.93,4-78.86
				c4.05-37.35,8.64-79.63,3.04-127.76c-0.1-0.84,0.5-1.61,1.34-1.71h0c0.85-0.1,1.62,0.51,1.72,1.36
				c5.64,48.47,1.03,90.94-3.04,128.45c-3.01,27.78-5.86,54.01-3.99,78.29c3.22,41.82-3.38,66.84-11.75,98.51
				c-3.17,11.99-6.75,25.58-10.15,41.42c-11.93,55.68-16.38,130.01-16.38,163.78v124.62
				C1219.51,1507.23,1218.82,1507.92,1217.97,1507.92z"/>
		</g>
		<g>
			<path class="st5" d="M1256.3,1088.91L1256.3,1088.91c-0.82-0.35-1.18-1.3-0.8-2.09c2.79-5.79,14.45-27.22,41.42-45.49
				c0.71-0.48,1.68-0.28,2.15,0.43l0,0c0.47,0.71,0.27,1.65-0.43,2.13c-26.13,17.71-37.71,38.87-40.37,44.29
				C1257.92,1088.91,1257.05,1089.23,1256.3,1088.91z"/>
		</g>
		<g>
			<g>
				<path class="st5" d="M1259.05,995.3c-0.63-8.61-4.3-51.75-16.42-76.04c-0.38-0.76-0.09-1.67,0.65-2.07l0,0
					c0.76-0.4,1.71-0.11,2.09,0.66c5.7,11.39,10.25,27.89,13.53,49.06c2.03,13.11,2.94,24.2,3.23,28.17
					c0.06,0.86-0.59,1.6-1.45,1.65l0,0C1259.84,996.78,1259.11,996.14,1259.05,995.3z"/>
			</g>
		</g>
		<path class="st6" d="M1225.94,1256.97"/>
		<g>
			<g>
				<path class="st5" d="M1225.94,1256.97l1.18-0.01c-0.6-0.61,0.61-3.91,1.22-4.51c7.1-6.97,42.53-41.31,62.42-51.88
					c0.77-0.41,1.72-0.1,2.11,0.69l0,0c0.36,0.75,0.07,1.64-0.66,2.03c-19.24,10.22-57.17,46.92-64.09,53.68
					C1227.51,1257.58,1226.54,1257.57,1225.94,1256.97z"/>
			</g>
		</g>
		<g>
			<g>
				<path class="st5" d="M1218.21,1330.3c-3.73-7.8-22.76-46.87-41.6-72.42c-0.5-0.68-0.36-1.64,0.31-2.15l0,0
					c0.68-0.51,1.66-0.38,2.16,0.31c18.99,25.76,38.13,65.03,41.9,72.92c0.37,0.77,0.04,1.7-0.74,2.06l0,0
					C1219.49,1331.39,1218.58,1331.06,1218.21,1330.3z"/>
			</g>
		</g>
	</g>
	<g>
		
			<radialGradient id="SVGID_00000111154683011446964830000012412123370925174447_" cx="690.3685" cy="950.1007" r="844.9421" gradientUnits="userSpaceOnUse">
			<stop  offset="0" style="stop-color:#FEFFCF"/>
			<stop  offset="0.5181" style="stop-color:#A171FF"/>
			<stop  offset="1" style="stop-color:#4B28FC"/>
		</radialGradient>
		<path style="fill:url(#SVGID_00000111154683011446964830000012412123370925174447_);" d="M1003.9,1404.06
			c-16.72-61.12-14.79-71.98,14.79-89.73c29.58-17.75-40.72-82.83-13.95-109.45c26.77-26.62,52.41-29.51,39.59-86.25
			c-12.82-56.73,54.23-87.3,52.26,6.37c-1.97,93.68,20.71,31.43,40.43,45.79c19.72,14.36-74.94,100.15-30.57,107.05
			c44.37,6.9-29.58,60.15-28.6,119.31C1078.84,1456.32,1016.87,1451.45,1003.9,1404.06z"/>
		<g>
			<path class="st5" d="M1042.03,1507.92L1042.03,1507.92c-0.55,0-0.99-0.44-0.99-0.99v-79.87c0-21.73,2.86-69.55,10.54-105.39
				c2.18-10.2,4.49-18.93,6.53-26.64c5.52-20.91,9.51-36.01,7.47-62.48c-1.21-15.74,0.62-32.64,2.56-50.54
				c2.6-23.94,5.54-51.04,1.95-81.89c-0.06-0.54,0.32-1.03,0.86-1.1l0,0c0.54-0.07,1.04,0.33,1.1,0.87
				c3.61,31.07,0.66,58.28-1.95,82.33c-1.93,17.8-3.76,34.62-2.56,50.18c2.07,26.8-2.17,42.84-7.53,63.14
				c-2.03,7.68-4.33,16.39-6.5,26.55c-7.65,35.68-10.5,83.33-10.5,104.97v79.87C1043.02,1507.48,1042.57,1507.92,1042.03,1507.92z"
				/>
		</g>
		<g>
			<path class="st5" d="M1066.59,1239.37L1066.59,1239.37c-0.53-0.22-0.76-0.83-0.51-1.34c1.79-3.71,9.26-17.45,26.55-29.16
				c0.45-0.31,1.08-0.18,1.38,0.28l0,0c0.3,0.45,0.17,1.06-0.28,1.36c-16.75,11.35-24.17,24.91-25.87,28.39
				C1067.63,1239.37,1067.08,1239.57,1066.59,1239.37z"/>
		</g>
		<g>
			<g>
				<path class="st5" d="M1068.36,1179.37c-0.4-5.52-2.76-33.17-10.53-48.73c-0.24-0.48-0.06-1.07,0.42-1.32l0,0
					c0.49-0.26,1.1-0.07,1.34,0.42c3.65,7.3,6.57,17.87,8.67,31.44c1.3,8.4,1.88,15.51,2.07,18.05c0.04,0.55-0.38,1.02-0.93,1.06
					l0,0C1068.86,1180.32,1068.4,1179.91,1068.36,1179.37z"/>
			</g>
		</g>
		<path class="st6" d="M1047.13,1347.08"/>
		<g>
			<g>
				<path class="st5" d="M1047.13,1347.08l0.75,0c-0.39-0.39,0.39-2.5,0.78-2.89c4.55-4.46,27.26-26.48,40-33.25
					c0.49-0.26,1.11-0.06,1.35,0.44l0,0c0.23,0.48,0.05,1.05-0.42,1.3c-12.33,6.55-36.64,30.07-41.07,34.41
					C1048.14,1347.47,1047.52,1347.47,1047.13,1347.08z"/>
			</g>
		</g>
		<g>
			<g>
				<path class="st5" d="M1042.18,1394.08c-2.39-5-14.59-30.04-26.66-46.41c-0.32-0.44-0.23-1.05,0.2-1.38l0,0
					c0.44-0.33,1.06-0.24,1.39,0.2c12.17,16.51,24.44,41.68,26.86,46.74c0.24,0.5,0.02,1.09-0.47,1.32l0,0
					C1043,1394.78,1042.42,1394.57,1042.18,1394.08z"/>
			</g>
		</g>
	</g>
	<g>
		<g>
			<path class="st8" d="M1788.99,1506.9h482.56c45.18,0,82.15-36.97,82.15-82.15V358.11c0-45.18-36.97-82.15-82.15-82.15h-482.56
				c-45.18,0-82.15,36.97-82.15,82.15v1066.63C1706.84,1469.93,1743.81,1506.9,1788.99,1506.9z"/>
			
				<radialGradient id="SVGID_00000111154419385395352470000015972091891016034210_" cx="1248.5674" cy="1624.5616" r="3423.25" gradientTransform="matrix(1 0 0 1.0252 0 -6.9405)" gradientUnits="userSpaceOnUse">
				<stop  offset="0" style="stop-color:#E20081"/>
				<stop  offset="0.5464" style="stop-color:#FFB048"/>
				<stop  offset="1" style="stop-color:#FFFC9F"/>
			</radialGradient>
			<path style="fill:url(#SVGID_00000111154419385395352470000015972091891016034210_);" d="M1795.57,1477.18h465.47
				c29.5,0,53.41-23.91,53.41-53.41V391.72c0-29.5-23.91-53.41-53.41-53.41h-465.47c-29.5,0-53.41,23.91-53.41,53.41v1032.05
				C1742.16,1453.27,1766.08,1477.18,1795.57,1477.18z"/>
			<path class="st5" d="M1958.56,314.61h139.5c1,0,1.8-0.81,1.8-1.8v-4.61c0-1-0.81-1.8-1.8-1.8h-139.5c-1,0-1.8,0.81-1.8,1.8v4.61
				C1956.76,313.8,1957.56,314.61,1958.56,314.61z"/>
		</g>
		<g>
			<path class="st5" d="M2039.05,1281.2l-47.28-370.7h-21.1l-16.59-101.02l-18.09,101.02h-30.82l-41.67-318.35
				c-5.67,30.7-16.49,88.95-27.52,146.68c-9.37,49.02-17.05,88.08-22.85,116.1c-11.49,55.57-12.4,55.57-16.2,55.57h-54.77v-7.09
				h52.64c6.98-20.2,42.75-208.84,65.8-334.68l4.07-22.2l46.71,356.88h18.67l24.33-135.82l22.3,135.82H1998l41.09,322.14
				l41.05-317.72h48.31l34.44-100.46l32.53,100.46h28.51l12.89,55.15l11.46-55.15h66.17v7.09h-60.41l-16.82,80.94l-18.92-80.94
				h-28.05l-27.57-85.13l-29.19,85.13h-47.14L2039.05,1281.2z"/>
		</g>
	</g>
	<g>
		<path class="st10" d="M1592.9,1589.91c-86.79,0-123.71,22.95-47.89,22.95c75.82,0,478.86,0,572.64,0
			c93.78,0,96.77-25.94-5.99-27.93C2008.91,1582.93,1592.9,1589.91,1592.9,1589.91z"/>
		<g>
			
				<linearGradient id="SVGID_00000068654425586320019100000008829123983305097602_" gradientUnits="userSpaceOnUse" x1="1472.0503" y1="817.9229" x2="1400.5541" y2="749.752">
				<stop  offset="0" style="stop-color:#DD647E"/>
				<stop  offset="0.5802" style="stop-color:#FE95A9"/>
				<stop  offset="0.9978" style="stop-color:#FFDA99"/>
			</linearGradient>
			<path style="fill:url(#SVGID_00000068654425586320019100000008829123983305097602_);" d="M1457.85,792.94
				c0,0-4.83-10.46-15.14-5.14c-10.31,5.32,8.51,20.94,12.73,26.76C1459.67,820.38,1457.85,792.94,1457.85,792.94z"/>
			
				<linearGradient id="SVGID_00000004539092455954420420000012945696034623976125_" gradientUnits="userSpaceOnUse" x1="1787.9978" y1="1045.8507" x2="1586.4784" y2="797.4429">
				<stop  offset="0" style="stop-color:#DD647E"/>
				<stop  offset="0.5802" style="stop-color:#FE95A9"/>
				<stop  offset="0.9978" style="stop-color:#FFDA99"/>
			</linearGradient>
			<path style="fill:url(#SVGID_00000004539092455954420420000012945696034623976125_);" d="M1750.67,867.05
				c-153.96,124.32-297.81-38.62-295.9-55.8c2-18,23,7,125,33c54,13.76,104.78-24.52,140.62-63.61
				C1720.39,780.64,1748.57,827.86,1750.67,867.05z"/>
			
				<radialGradient id="SVGID_00000053510639856769486710000002977005536635548601_" cx="1617.5823" cy="655.8416" r="294.0363" gradientUnits="userSpaceOnUse">
				<stop  offset="0" style="stop-color:#A171FF"/>
				<stop  offset="1" style="stop-color:#4B28FC"/>
			</radialGradient>
			<path style="fill:url(#SVGID_00000053510639856769486710000002977005536635548601_);" d="M1772.77,847.25
				c-7.38,7.29-14.75,13.87-22.1,19.8c-2.1-39.19-30.28-86.41-30.28-86.41s0-0.01,0.01-0.02c31.86-34.74,59.11-80.6,59.11-80.6
				L1772.77,847.25z"/>
			
				<linearGradient id="SVGID_00000095318465574339583970000011013485798541087621_" gradientUnits="userSpaceOnUse" x1="1601.7432" y1="985.6846" x2="2218.9392" y2="1565.6353">
				<stop  offset="0" style="stop-color:#DD647E"/>
				<stop  offset="0.5802" style="stop-color:#FE95A9"/>
				<stop  offset="0.9978" style="stop-color:#FFDA99"/>
			</linearGradient>
			<path style="fill:url(#SVGID_00000095318465574339583970000011013485798541087621_);" d="M2074.3,1338.55
				c0,0,8.7,36.19-2.71,69.02c-216.65-29.29-296.81-149.25-324.17-256.13c32.62-1.22,87.34-4.09,126.47-10.46
				C1915.33,1242.96,2000.48,1303.58,2074.3,1338.55z"/>
			<path class="st15" d="M2206.95,1425.93c-0.84,15.49-3.05,29.75-8.18,32.32c-7.69,3.84-11.27-15.3-12.85-29.55
				C2195.39,1427.57,2202.87,1426.52,2206.95,1425.93z"/>
			
				<radialGradient id="SVGID_00000118364470328179101950000004153707550939589545_" cx="1171.8679" cy="685.3812" r="613.4821" gradientUnits="userSpaceOnUse">
				<stop  offset="2.634670e-03" style="stop-color:#FFF6A6"/>
				<stop  offset="1" style="stop-color:#219DDB"/>
			</radialGradient>
			<path style="fill:url(#SVGID_00000118364470328179101950000004153707550939589545_);" d="M1873.89,1140.98
				c-39.13,6.37-93.85,9.24-126.47,10.46c-24.55-95.86-6.65-181.19-6.65-181.19l108,23
				C1847.22,1050.2,1856.86,1099.08,1873.89,1140.98z"/>
			<path class="st17" d="M1541.77,1556.25c6.39-2.32,26.29-4.65,41.84-6.18l-4.17,20
				C1558.39,1564.92,1535.55,1558.51,1541.77,1556.25z"/>
			
				<linearGradient id="SVGID_00000083064589239953441890000012617760856426985138_" gradientUnits="userSpaceOnUse" x1="1944.4529" y1="1287.6282" x2="1715.6646" y2="1143.9703">
				<stop  offset="0" style="stop-color:#DD647E"/>
				<stop  offset="0.5802" style="stop-color:#FE95A9"/>
				<stop  offset="0.9978" style="stop-color:#FFDA99"/>
			</linearGradient>
			<path style="fill:url(#SVGID_00000083064589239953441890000012617760856426985138_);" d="M1930.31,987.98
				c0,0-92.37,257.97-198.06,437.44l-85.6-29.06c33.28-110.36,83.63-262.75,142.78-393.99
				C1789.43,1002.37,1907.85,941.71,1930.31,987.98z"/>
			
				<radialGradient id="SVGID_00000042725639770899643940000002641108373037856658_" cx="1586.5319" cy="928.4577" r="474.2836" gradientUnits="userSpaceOnUse">
				<stop  offset="2.634670e-03" style="stop-color:#FFF6A6"/>
				<stop  offset="1" style="stop-color:#219DDB"/>
			</radialGradient>
			<path style="fill:url(#SVGID_00000042725639770899643940000002641108373037856658_);" d="M1743.47,1112.4
				c0,0,109.3,71.85,133.3,75.85c0,0,17.06-116.52,42-149c24.94-32.48,42-83-21-87s-115,49-115,49L1743.47,1112.4z"/>
			
				<radialGradient id="SVGID_00000164504360172956555920000013850871054319199166_" cx="1607.8135" cy="598.5771" r="732.4118" gradientUnits="userSpaceOnUse">
				<stop  offset="0" style="stop-color:#A171FF"/>
				<stop  offset="1" style="stop-color:#4B28FC"/>
			</radialGradient>
			<path style="fill:url(#SVGID_00000164504360172956555920000013850871054319199166_);" d="M1836.86,670.77
				c0,0,62.69-16.17,72.13,32.48s22.51,244.71,37.03,280.29c0,0-181.54,56.64-205.5-15.25c0,0,28.32-126.35,25.42-172.82
				C1763.03,749,1760.11,673.93,1836.86,670.77z"/>
			
				<linearGradient id="SVGID_00000183236847966043574670000000368512896984855474_" gradientUnits="userSpaceOnUse" x1="1861.1417" y1="626.8459" x2="1804.2775" y2="644.4706">
				<stop  offset="0" style="stop-color:#DD647E"/>
				<stop  offset="0.5802" style="stop-color:#FE95A9"/>
				<stop  offset="0.9978" style="stop-color:#FFDA99"/>
			</linearGradient>
			<path style="fill:url(#SVGID_00000183236847966043574670000000368512896984855474_);" d="M1823.77,582.25c0,0,46.07,88.11,33,99
				c-13.07,10.89-50.17,17.64-44.36,3.12c5.81-14.52,0-47.2,0-47.2L1823.77,582.25z"/>
			
				<linearGradient id="SVGID_00000162315176251240449980000012075458541293213586_" gradientUnits="userSpaceOnUse" x1="1961.1945" y1="694.3696" x2="1780.6246" y2="585.6285">
				<stop  offset="0" style="stop-color:#DD647E"/>
				<stop  offset="0.5802" style="stop-color:#FE95A9"/>
				<stop  offset="0.9978" style="stop-color:#FFDA99"/>
			</linearGradient>
			<path style="fill:url(#SVGID_00000162315176251240449980000012075458541293213586_);" d="M1792.96,581.45
				c0,0-2.17,53.29,12.05,59.52c14.21,6.23,25.24-13.59,26.85-26.14c1.61-12.55,1.9-27.08-8.88-42.06
				C1812.2,557.79,1797.2,564.28,1792.96,581.45z"/>
			
				<radialGradient id="SVGID_00000142874650287217574940000000003197304350023317_" cx="1738.17" cy="544.0403" r="97.9674" gradientUnits="userSpaceOnUse">
				<stop  offset="0" style="stop-color:#A171FF"/>
				<stop  offset="1" style="stop-color:#4B28FC"/>
			</radialGradient>
			<path style="fill:url(#SVGID_00000142874650287217574940000000003197304350023317_);" d="M1792.77,582.25
				c0,0,13.01,2.59,26.01-2.41l17.65,29.71c0,0,3.34-31.3-8.66-45.3s-36-10-35-18c0,0-12,9,0,14c0,0-16-1-16-6
				C1776.77,554.25,1754.77,575.25,1792.77,582.25z"/>
			
				<linearGradient id="SVGID_00000047772817211655475240000000368382387119585194_" gradientUnits="userSpaceOnUse" x1="1858.2455" y1="577.5026" x2="1811.3568" y2="608.7617">
				<stop  offset="0" style="stop-color:#DD647E"/>
				<stop  offset="0.5802" style="stop-color:#FE95A9"/>
				<stop  offset="0.9978" style="stop-color:#FFDA99"/>
			</linearGradient>
			<path style="fill:url(#SVGID_00000047772817211655475240000000368382387119585194_);" d="M1832.69,604.34l-0.91-19.09
				c0,0,5-1,6,4S1835.6,603.43,1832.69,604.34z"/>
			<path class="st5" d="M1732.25,1425.42l-0.02,0.04c-40.01,67.93-81.92,124.61-121.46,151.79c0,0-15.13-3.22-31.33-7.18l4.17-20
				c11.21-1.12,20.16-1.82,20.16-1.82s15.78-62.01,42.88-151.89L1732.25,1425.42z"/>
			<path class="st5" d="M2206.95,1425.93c-4.08,0.59-11.56,1.64-21.03,2.77c-0.89-8-1.15-14.45-1.15-14.45
				c-41.35,0.31-78.97-2.06-113.18-6.68c11.41-32.83,2.71-69.02,2.71-69.02c71.57,33.91,132.47,43.7,132.47,43.7
				S2208.08,1405.19,2206.95,1425.93z"/>
			
				<linearGradient id="SVGID_00000108306808100445228800000000472672143382613647_" gradientUnits="userSpaceOnUse" x1="1461.3104" y1="800.5428" x2="1440.859" y2="794.3907">
				<stop  offset="0" style="stop-color:#DD647E"/>
				<stop  offset="0.0312" style="stop-color:#E57088"/>
				<stop  offset="0.0933" style="stop-color:#F08197"/>
				<stop  offset="0.1706" style="stop-color:#F88CA1"/>
				<stop  offset="0.279" style="stop-color:#FD93A7"/>
				<stop  offset="0.5802" style="stop-color:#FE95A9"/>
				<stop  offset="0.9978" style="stop-color:#FFDA99"/>
			</linearGradient>
			<path style="fill:url(#SVGID_00000108306808100445228800000000472672143382613647_);" d="M1453.34,787.8
				c0,0,5.51,12.3-4.39,17.45c-9.9,5.15-12.56-9.14-10.9-12.8C1439.71,788.79,1445.51,782.49,1453.34,787.8z"/>
			
				<linearGradient id="SVGID_00000093165833183869447570000007334591138095638955_" gradientUnits="userSpaceOnUse" x1="1492.8741" y1="854.905" x2="1447.6487" y2="789.727">
				<stop  offset="0" style="stop-color:#DD647E"/>
				<stop  offset="0.0312" style="stop-color:#E57088"/>
				<stop  offset="0.0933" style="stop-color:#F08197"/>
				<stop  offset="0.1706" style="stop-color:#F88CA1"/>
				<stop  offset="0.279" style="stop-color:#FD93A7"/>
				<stop  offset="0.5802" style="stop-color:#FE95A9"/>
				<stop  offset="0.9978" style="stop-color:#FFDA99"/>
			</linearGradient>
			<path style="fill:url(#SVGID_00000093165833183869447570000007334591138095638955_);" d="M1460.19,805.14
				c0,0,3.3-15.69-9.33-13.69c-12.64,2,3.9,2.33,3.9,2.33s-4.27,7.39,0.02,17.47C1459.06,821.33,1460.19,805.14,1460.19,805.14z"/>
			
				<radialGradient id="SVGID_00000000919654913461934770000000624094398274429328_" cx="1643.8337" cy="630.5907" r="406.6441" gradientUnits="userSpaceOnUse">
				<stop  offset="0" style="stop-color:#A171FF"/>
				<stop  offset="1" style="stop-color:#4B28FC"/>
			</radialGradient>
			<polygon style="fill:url(#SVGID_00000000919654913461934770000000624094398274429328_);" points="1873.89,714.54 1935.23,930.09 
				1914.08,745.23 			"/>
			
				<linearGradient id="SVGID_00000107559253615683660970000007004822885014718613_" gradientUnits="userSpaceOnUse" x1="2029.2703" y1="1034.5381" x2="2095.4888" y2="683.5801">
				<stop  offset="0" style="stop-color:#DD647E"/>
				<stop  offset="0.5802" style="stop-color:#FE95A9"/>
				<stop  offset="0.9978" style="stop-color:#FFDA99"/>
			</linearGradient>
			<path style="fill:url(#SVGID_00000107559253615683660970000007004822885014718613_);" d="M2144.77,757.25
				c-32.52-39.62-117.42-62.62-181.39-74.8c-22.02,25.44-17.36,93.38-17.36,93.38c67,20.21,159.75,10.42,159.75,10.42
				s30.14,144.35,47.33,186.53c0,0-11.89,21.52-6.57,27.5c5.32,5.99,2.83,5.99,6.57,9.64s20.03,2.59,21.7-5.19
				c1.66-7.78-5.91-34.49-5.91-34.49C2181.14,929.52,2188.16,810.1,2144.77,757.25z"/>
			
				<radialGradient id="SVGID_00000008846565652988088100000016577240780523147442_" cx="1943.6804" cy="616.5342" r="251.207" gradientUnits="userSpaceOnUse">
				<stop  offset="0" style="stop-color:#A171FF"/>
				<stop  offset="1" style="stop-color:#4B28FC"/>
			</radialGradient>
			<path style="fill:url(#SVGID_00000008846565652988088100000016577240780523147442_);" d="M1946.02,775.83
				c-21.28-6.41-39.96-15.84-52.25-29.58c0,0-36.89-39.64-22.08-77.16c0,0,47.47,4.93,91.69,13.36
				C1941.36,707.89,1946.02,775.83,1946.02,775.83z"/>
			
				<radialGradient id="SVGID_00000083060082293113242320000009727450984977096833_" cx="1401.6384" cy="1479.1455" r="380.7928" gradientUnits="userSpaceOnUse">
				<stop  offset="0" style="stop-color:#A171FF"/>
				<stop  offset="1" style="stop-color:#4B28FC"/>
			</radialGradient>
			<path style="fill:url(#SVGID_00000083060082293113242320000009727450984977096833_);" d="M1603.77,1548.25c0,0,13,6,0,17
				c0,0,12.72,8.4,19.86,2.2c7.14-6.2,8.14,13.8,0.14,23.8s-37,6-44,0s-16-8-35-9s-50-23-29-31S1603.77,1548.25,1603.77,1548.25z"/>
			
				<radialGradient id="SVGID_00000128465655129646830710000002201379824451558572_" cx="2206.3877" cy="1572.2576" r="184.9368" gradientUnits="userSpaceOnUse">
				<stop  offset="0" style="stop-color:#A171FF"/>
				<stop  offset="1" style="stop-color:#4B28FC"/>
			</radialGradient>
			<path style="fill:url(#SVGID_00000128465655129646830710000002201379824451558572_);" d="M2184.77,1414.25c0,0,6-5,12,0
				s8-32,8-32l-5.01-1.31c0,0,12.01-8.69,23.01,7.31s1,20,0,26s3,49-11,59S2180.77,1483.25,2184.77,1414.25z"/>
		</g>
	</g>
	
		<radialGradient id="SVGID_00000170257689537810159560000015189358150579247280_" cx="879.3315" cy="526.9437" r="867.7849" gradientUnits="userSpaceOnUse">
		<stop  offset="0" style="stop-color:#E20081"/>
		<stop  offset="0.5464" style="stop-color:#FFB048"/>
		<stop  offset="1" style="stop-color:#FFFC9F"/>
	</radialGradient>
	<path style="opacity:0.29;fill:url(#SVGID_00000170257689537810159560000015189358150579247280_);" d="M437.72,311.46
		c130.36,0,190.84,0,190.84,0s-5.1-58.53-57.4-35.91c0,0-14.22-83.8-89.79-69.17c-75.57,14.63-58.28,93.11-87.54,73.16
		c-29.26-19.95-34.58,26.6-66.51,18.62c-31.92-7.98-45.23,13.3-45.23,13.3H437.72z"/>
	
		<radialGradient id="SVGID_00000021820376742598157800000009794342249704197035_" cx="1820.1373" cy="897.1682" r="870.1029" gradientUnits="userSpaceOnUse">
		<stop  offset="0" style="stop-color:#E20081"/>
		<stop  offset="0.5464" style="stop-color:#FFB048"/>
		<stop  offset="1" style="stop-color:#FFFC9F"/>
	</radialGradient>
	<path style="opacity:0.29;fill:url(#SVGID_00000021820376742598157800000009794342249704197035_);" d="M1377.34,681.11
		c130.7,0,191.35,0,191.35,0s-5.11-58.68-57.55-36.01c0,0-14.26-84.02-90.03-69.35c-75.77,14.67-58.43,93.36-87.78,73.35
		c-29.34-20.01-34.68,26.67-66.69,18.67c-32.01-8-45.35,13.34-45.35,13.34H1377.34z"/>
	
		<radialGradient id="SVGID_00000003103286547655540060000005356314586255308981_" cx="1248.4816" cy="1158.4032" r="622.4689" gradientUnits="userSpaceOnUse">
		<stop  offset="0" style="stop-color:#E20081"/>
		<stop  offset="0.5464" style="stop-color:#FFB048"/>
		<stop  offset="1" style="stop-color:#FFFC9F"/>
	</radialGradient>
	<path style="opacity:0.17;fill:url(#SVGID_00000003103286547655540060000005356314586255308981_);" d="M931.71,1003.83
		c93.51,0,136.89,0,136.89,0s-3.66-41.98-41.17-25.76c0,0-10.2-60.11-64.41-49.62c-54.21,10.5-41.8,66.79-62.79,52.48
		c-20.99-14.31-24.81,19.08-47.71,13.36c-22.9-5.72-32.44,9.54-32.44,9.54H931.71z"/>
	
		<radialGradient id="SVGID_00000128485476366811141290000004005333265331070898_" cx="1210.1022" cy="481.914" r="337.7784" gradientUnits="userSpaceOnUse">
		<stop  offset="0" style="stop-color:#E20081"/>
		<stop  offset="0.5464" style="stop-color:#FFB048"/>
		<stop  offset="1" style="stop-color:#FFFC9F"/>
	</radialGradient>
	<path style="opacity:0.17;fill:url(#SVGID_00000128485476366811141290000004005333265331070898_);" d="M1038.21,398.04
		c50.74,0,74.28,0,74.28,0s-1.98-22.78-22.34-13.98c0,0-5.54-32.62-34.95-26.92c-29.42,5.7-22.68,36.24-34.07,28.48
		c-11.39-7.77-13.46,10.36-25.89,7.25c-12.43-3.11-17.6,5.18-17.6,5.18H1038.21z"/>
	
		<radialGradient id="SVGID_00000049906686901303700580000009768690285134319286_" cx="1617.6166" cy="402.6017" r="440.924" gradientUnits="userSpaceOnUse">
		<stop  offset="0" style="stop-color:#A171FF"/>
		<stop  offset="1" style="stop-color:#4B28FC"/>
	</radialGradient>
	<path style="fill:url(#SVGID_00000049906686901303700580000009768690285134319286_);" d="M1935.23,772.22
		c0,0-8.21-53.85,18.83-91.49l-15.52-2.64c0,0-23.24,39.84-17.61,87.99L1935.23,772.22z"/>
	<g>
		<g>
			<path class="st8" d="M1973.33,725.31l5.6-27.73c0.69-3.4-1.53-6.74-4.93-7.43l-63.92-12.91c-3.4-0.69-6.74,1.53-7.43,4.93
				l-5.6,27.73c-0.69,3.4,1.53,6.74,4.93,7.43l63.92,12.91C1969.3,730.93,1972.64,728.71,1973.33,725.31z"/>
			
				<radialGradient id="SVGID_00000034800215835928032820000014761343486110192000_" cx="2353.6687" cy="293.7882" r="216.4205" gradientTransform="matrix(0.198 -0.9802 1.0049 0.203 1214.4865 3009.2124)" gradientUnits="userSpaceOnUse">
				<stop  offset="0" style="stop-color:#E20081"/>
				<stop  offset="0.5464" style="stop-color:#FFB048"/>
				<stop  offset="1" style="stop-color:#FFFC9F"/>
			</radialGradient>
			<path style="fill:url(#SVGID_00000034800215835928032820000014761343486110192000_);" d="M1971.47,725.03l5.59-27.67
				c0.43-2.15-0.96-4.25-3.11-4.69L1911.17,680c-2.15-0.43-4.25,0.96-4.69,3.11l-5.59,27.67c-0.44,2.15,0.96,4.25,3.11,4.69
				l62.77,12.68C1968.93,728.57,1971.03,727.18,1971.47,725.03z"/>
			<path class="st5" d="M1901.38,700.82l1.69-8.36c0.03-0.14-0.06-0.28-0.2-0.31l0,0c-0.14-0.03-0.28,0.06-0.31,0.2l-1.69,8.36
				c-0.03,0.14,0.06,0.28,0.2,0.31l0,0C1901.21,701.05,1901.35,700.96,1901.38,700.82z"/>
		</g>
		<g>
			<path class="st5" d="M1962.25,708.08l-23.56-1.71l-0.26,1.31l-6.47-0.24l6.03,2.39l-0.39,1.91l-20.25-1.4
				c1.83,0.74,5.31,2.14,8.74,3.54c2.92,1.19,5.24,2.16,6.91,2.87c3.3,1.41,3.29,1.46,3.24,1.7l-0.69,3.39l-0.44-0.09l0.66-3.26
				c-1.16-0.69-12.41-5.26-19.92-8.27l-1.32-0.53l22.7,1.57l0.23-1.16l-8.11-3.21l8.7,0.32l0.27-1.32l20.48,1.49l-19.17-6.52
				l0.6-2.99l-5.79-3.39l6.63-0.76l0.36-1.77l3.58-0.11l-3.27-1.4l0.83-4.1l0.44,0.09l-0.76,3.74l4.81,2.06l-5.25,0.16l-0.35,1.74
				l-5.62,0.64l4.91,2.87l-0.59,2.92L1962.25,708.08z"/>
		</g>
	</g>
</g>
</svg>
