<?xml version="1.0" encoding="iso-8859-1"?>
<!-- Uploaded to: SVG Repo, www.svgrepo.com, Generator: SVG Repo Mixer Tools -->
<svg fill="#789B35" height="800px" width="800px" version="1.1" id="Layer_1" xmlns="http://www.w3.org/2000/svg" xmlns:xlink="http://www.w3.org/1999/xlink" 
	 viewBox="0 0 511.999 511.999" xml:space="preserve">
<g>
	<g>
		<path d="M402.078,326.654c-4.075-49.48-25.448-87.135-44.304-120.358c-10.82-19.062-21.038-37.066-26.761-55.136
			c-10.455-33.02-29.715-46.101-44.033-51.259c-4.182-1.507-8.186-2.424-11.85-2.963c-1.541-15.901,0.486-46.711,31.895-72.956
			L286.987,0c-10.136,8.469-17.946,17.358-23.966,26.21c-28.948-19.497-61.97-20.267-95.933-2.119
			c-25.555,13.654-42.627,33.58-43.34,34.421l-14.798,17.433l21.618,7.45c22.63,7.798,43.235,11.697,61.7,11.697
			c19.417,0,36.465-4.312,51.001-12.934c0.181-0.107,0.353-0.219,0.533-0.327c-0.362,5.557-0.287,10.655,0.021,15.151
			c-3.58,0.545-7.474,1.45-11.539,2.915c-14.316,5.159-33.577,18.24-44.033,51.259c-5.722,18.07-15.941,36.076-26.76,55.138
			c-18.857,33.222-40.23,70.878-44.304,120.358c-2.901,35.224-1.733,100.864,38.676,144.738
			c24.817,26.945,59.73,40.608,103.77,40.608c44.038,0,78.952-13.663,103.77-40.607C403.81,427.519,404.978,361.878,402.078,326.654
			z M167.053,61.094c4.56-3.398,9.764-6.822,15.443-9.802c19.998-10.491,38.061-11.791,54.83-3.863
			C227.809,57.171,207.394,69.095,167.053,61.094z M340.416,450.221c-18.658,20.257-45.837,30.529-80.784,30.529
			c-34.947,0-62.126-10.271-80.784-30.529c-32.332-35.104-32.997-90.879-30.517-121.002c3.509-42.611,22.232-75.597,40.337-107.497
			c11.653-20.532,22.661-39.926,29.376-61.129c5.11-16.14,13.075-26.518,23.672-30.847c4.489-1.834,8.663-2.231,11.434-2.231
			c1.726,0,2.907,0.154,3.28,0.21l2.938,0.749l3.583-0.779c0.057-0.013,6.188-1.007,13.435,1.604
			c11.178,4.028,19.535,14.558,24.835,31.294c6.714,21.204,17.722,40.597,29.375,61.128c18.107,31.901,36.829,64.887,40.338,107.498
			C373.413,359.342,372.747,415.118,340.416,450.221z"/>
	</g>
</g>
<g>
	<g>
		<path d="M307.489,289.936c-12.287-16.382-29.73-25.777-47.856-25.777c-18.127,0-35.57,9.395-47.856,25.777
			c-11.46,15.278-17.77,35.35-17.77,56.517c0,21.166,6.31,41.237,17.77,56.517c12.286,16.382,29.729,25.777,47.856,25.777
			c18.126,0,35.569-9.395,47.856-25.777c11.459-15.278,17.77-35.351,17.77-56.517S318.947,305.215,307.489,289.936z
			 M259.632,397.495c-18.634,0-34.376-23.374-34.376-51.043c0-27.667,15.742-51.043,34.376-51.043s34.376,23.375,34.376,51.043
			C294.008,374.119,278.265,397.495,259.632,397.495z"/>
	</g>
</g>
</svg>